<svg id="Capa_1" enable-background="new 0 0 512 512" height="512" viewBox="0 0 512 512" width="512" xmlns="http://www.w3.org/2000/svg">
    <g>
        <path d="m256 0c-140.959 0-256 115.05-256 256 0 140.959 115.05 256 256 256 140.959 0 256-115.049 256-256 0-140.959-115.049-256-256-256zm0 482c-124.617 0-226-101.383-226-226s101.383-226 226-226 226 101.383 226 226-101.383 226-226 226z" />
        <path d="m256 151c28.047 0 54.414 10.922 74.246 30.753 5.856 5.857 15.354 5.858 21.213 0 5.858-5.857 5.858-15.355 0-21.213-25.498-25.498-59.399-39.54-95.459-39.54s-69.961 14.042-95.459 39.541c-52.636 52.636-52.636 138.283 0 190.919 25.498 25.498 59.399 39.54 95.459 39.54s69.961-14.042 95.459-39.541c5.858-5.858 5.858-15.355 0-21.213-5.857-5.858-15.355-5.858-21.213 0-19.832 19.832-46.199 30.754-74.246 30.754-28.046 0-54.415-10.922-74.247-30.753-40.939-40.94-40.939-107.553 0-148.493 19.832-19.832 46.201-30.754 74.247-30.754z" />
    </g>
</svg>