<svg id="Layer_1" enable-background="new 0 0 512.003 512.003" height="512" viewBox="0 0 512.003 512.003" width="512" xmlns="http://www.w3.org/2000/svg">
    <g>
        <path d="m210.053 226.245c-13.227-5.007-22.113-17.872-22.113-32.011v-19.781c0-9.697-15-9.697-15 0v19.781c0 18.558 10.642 35.587 26.958 43.896v266.322c0 4.142 3.357 7.5 7.5 7.5s7.5-3.358 7.5-7.5v-271.193c0-3.117-1.929-5.91-4.845-7.014z" />
        <path d="m367.524 112.211c-2.217-5.769-6.549-10.329-12.195-12.84-11.521-5.121-25.522.449-30.576 11.814l-11.709 27.111v-93.26c.318-15.84-16.63-27.481-31.276-21.66-1.781-31.114-45.02-31.087-46.275 0-14.649-5.817-31.592 5.819-31.275 21.661v15.34c-14.639-5.816-31.6 5.817-31.276 21.66v54.916c0 9.697 15 9.697 15 0v-54.917c.418-10.791 15.868-10.771 16.276 0v52.16c0 9.697 15 9.697 15 0 0-29.72 0-59.44 0-89.16.401-10.763 15.862-10.795 16.275 0v72.934c0 9.697 15 9.697 15 0v-94.88c0-4.487 3.65-8.138 8.138-8.138s8.138 3.65 8.138 8.138v94.88c0 9.697 15 9.697 15 0v-72.934c0-4.487 3.651-8.138 8.139-8.138s8.138 3.65 8.138 8.138v110.64c-22.138 1.979-39.46 20.591-39.46 42.862 0 9.697 15 9.697 15 0 0-21.027 19.038-28.786 36.963-28.043 2.992 0 5.699-1.779 6.886-4.526l21.06-48.762c2.44-4.342 6.021-5.719 10.741-4.129 4.343 2.44 5.72 6.021 4.13 10.742-11.829 26.603-36.258 81.051-36.258 81.051-3.458 9.825-11.136 17.816-20.538 21.375-2.916 1.104-4.845 3.896-4.845 7.014v271.193c0 4.142 3.357 7.5 7.5 7.5s7.5-3.358 7.5-7.5v-266.335c11.148-5.73 20.07-15.856 24.419-27.952 12.074-26.708 24.018-53.47 35.927-80.252 2.509-5.647 2.671-11.934.453-17.703z" />
    </g>
</svg>