<svg id="Layer_1" enable-background="new 0 0 512.003 512.003" height="512" viewBox="0 0 512.003 512.003" width="512" xmlns="http://www.w3.org/2000/svg">
    <g>
        <path d="m140.107 281.589v-8.911c.066-20.065-24.254-30.576-38.775-17.035-8.444-8.076-22.834-8.074-31.275 0-13.106-12.243-35.007-4.952-38.337 12.553-14.683-6.207-32.052 5.45-31.715 21.483v85.197c0 18.558 10.642 35.587 26.957 43.897v85.68c0 4.142 3.357 7.5 7.5 7.5s7.5-3.358 7.5-7.5v-90.551c0-3.118-1.929-5.91-4.845-7.014-13.226-5.007-22.112-17.872-22.112-32.012v-48.629c7.864 3.15 17.855 1.083 23.775-4.621 8.444 8.076 22.835 8.075 31.276 0 4.121 3.786 9.613 6.103 15.638 6.103h28.773v10.222c-14.886 5.439-28.819 20.409-28.819 41.229 0 4.142 3.357 7.5 7.5 7.5s7.5-3.358 7.5-7.5c0-15.567 11.688-26.132 22.686-28.169 3.555-.659 6.134-3.759 6.134-7.375v-23.408c0-4.142-3.357-7.5-7.5-7.5h-36.274c-4.487 0-8.138-3.651-8.138-8.138s3.65-8.138 8.138-8.138h51.912c4.487 0 8.138 3.65 8.138 8.138v70.286c0 14.14-8.887 27.004-22.112 32.012-2.916 1.104-4.845 3.896-4.845 7.014v90.551c0 4.142 3.357 7.5 7.5 7.5s7.5-3.358 7.5-7.5v-85.68c16.315-8.31 26.957-25.339 26.957-43.897v-70.286c0-11.913-9.051-21.749-20.637-23.001zm-23.138-17.049c4.487 0 8.138 3.65 8.138 8.138v8.774h-16.275v-8.774c0-4.487 3.65-8.138 8.137-8.138zm-93.827 48.188c-4.487 0-8.138-3.65-8.138-8.138v-.684-14.228c.41-10.784 15.869-10.775 16.275 0v14.912c.001 4.488-3.649 8.138-8.137 8.138zm31.277 0c-4.487 0-8.139-3.65-8.139-8.138v-14.912-17c.41-10.783 15.87-10.776 16.276 0v31.912c0 4.488-3.65 8.138-8.137 8.138zm23.137-29.794v-10.255c.41-10.784 15.869-10.775 16.275 0v8.774h-8.138c-2.862-.001-5.604.525-8.137 1.481z" />
    </g>
</svg>