<svg id="Layer_1" enable-background="new 0 0 512.003 512.003" height="512" viewBox="0 0 512.003 512.003" width="512" xmlns="http://www.w3.org/2000/svg">
    <g>
       
        <path d="m475.547 444.786c-4.143 0-7.5 3.358-7.5 7.5v52.167c.344 9.931 14.66 9.923 15 0v-52.167c0-4.142-3.357-7.5-7.5-7.5z" />
        <path d="m495.179 143.37c-12.063-3.424-25.19 4.007-28.575 15.942l-13.876 48.897-8.811-47.777c-2.314-12.547-14.411-20.875-26.951-18.558-12.547 2.314-20.871 14.404-18.558 26.951l7.529 40.828c-11.456-1.115-22.724 7.221-24.956 18.544-14.683-6.207-32.053 5.449-31.716 21.483v85.197c0 18.558 10.642 35.587 26.957 43.897v125.68c0 4.142 3.357 7.5 7.5 7.5s7.5-3.358 7.5-7.5v-130.552c0-3.118-1.929-5.91-4.845-7.014-13.226-5.007-22.112-17.872-22.112-32.012v-48.629c7.864 3.151 17.856 1.082 23.776-4.621 8.443 8.076 22.834 8.074 31.275 0 4.121 3.786 9.614 6.103 15.638 6.103h28.774v10.222c-14.887 5.439-28.82 20.409-28.82 41.229 0 4.142 3.357 7.5 7.5 7.5s7.5-3.358 7.5-7.5c0-15.567 11.688-26.132 22.687-28.169 3.555-.658 6.134-3.759 6.134-7.375v-23.408c0-4.142-3.357-7.5-7.5-7.5h-36.274c-10.765-.4-10.792-15.865 0-16.276 17.304 0 34.608.002 51.912 0 4.487 0 8.138 3.65 8.138 8.138v70.286c0 14.14-8.887 27.004-22.112 32.012-2.916 1.104-4.845 3.896-4.845 7.014v39.717c0 4.142 3.357 7.5 7.5 7.5s7.5-3.358 7.5-7.5v-34.846c16.315-8.31 26.957-25.339 26.957-43.897v-70.286c0-11.251-8.073-20.646-18.729-22.711l19.846-69.934c3.482-12.275-3.669-25.094-15.943-28.575zm-122.776 129.358c-4.487 0-8.138-3.65-8.138-8.138v-.684-14.228c.41-10.784 15.87-10.775 16.276 0v14.912c.001 4.488-3.651 8.138-8.138 8.138zm39.414-8.138c-.405 10.773-15.865 10.786-16.275 0v-14.912-17c.404-10.772 15.865-10.786 16.275 0zm15-21.656v-10.255c0-4.605-1.358-8.896-3.686-12.505l-9.971-54.069c-.814-4.413 2.113-8.665 6.526-9.479 4.413-.813 8.665 2.114 9.479 6.527l14.44 78.3h-8.65c-2.863-.001-5.605.525-8.138 1.481zm69.875-75.084-20.887 73.602h-16.92l22.149-78.046c1.802-4.645 5.152-6.514 10.051-5.606 4.316 1.224 6.832 5.733 5.607 10.05z" />
        
    </g>
</svg>